# xmcd CD database file
#
# Track frame offsets:
#	150
#	11843
#	25224
#	39672
#	51102
#	66871
#	82825
#	99399
#	113864
#	126106
#	150678
#	195821
#	215182
#
# Disc length: 3050 seconds
#
# Revision: 1
# Processed by: cddbd v1.5.2PL0 Copyright (c) Steve Scherf et al.
# Submitted via: CDex 1.51
#
DISCID=a80be80d
DTITLE=Hank Williams III - Damn Right, Rebel Proud
DYEAR=2008
DGENRE=Country
TTITLE0=The Grand Ole Opry (Ain't So Grand)
TTITLE1=Wild and Free
TTITLE2=Me and My Friends 
TTITLE3=Six Pack of Beer 
TTITLE4=I Wish I Knew
TTITLE5=If You Can't Help Your Own 
TTITLE6=Candidate For Suicide
TTITLE7=H8 Line
TTITLE8=Long Hauls and Close Calls
TTITLE9=Stoned and Alone
TTITLE10=P.F.F.
TTITLE11=3 Shades of Black 
TTITLE12=Workin' Man
EXTD=YEAR: 2008
EXTT0=
EXTT1=
EXTT2=
EXTT3=
EXTT4=
EXTT5=
EXTT6=
EXTT7=
EXTT8=
EXTT9=
EXTT10=
EXTT11=
EXTT12=
PLAYORDER=
